<svg width="1920" height="885" viewBox="0 0 1920 885" fill="none" xmlns="http://www.w3.org/2000/svg">
<path d="M-29.8203 -76.897C304.709 -194.272 176.55 563.88 406.459 703.502C685.429 872.938 767.233 24.2802 907.214 224.666C1089.11 485.04 1098.82 457.611 1416.18 298.486C1733.53 139.38 1961.47 514.492 1961.47 514.492" stroke="url(#paint0_linear_1_463)" stroke-width="2" stroke-miterlimit="10"/>
<path d="M-30.4375 -42.6777C313.514 -144.668 198.749 543.493 424.055 687.07C707.14 867.466 788.999 29.9503 930.243 228.784C1111.4 484.733 1109.39 486.178 1425.42 323.966C1742.75 160.76 1959.64 521.751 1959.64 521.751" stroke="url(#paint1_linear_1_463)" stroke-width="1.9405" stroke-miterlimit="10"/>
<path d="M-31.0508 -8.45843C322.341 -95.0631 220.861 523.359 441.654 670.619C728.819 862.175 810.768 35.6204 953.276 232.901C1133.69 484.444 1119.95 514.727 1434.68 349.463C1751.99 182.177 1957.84 529.029 1957.84 529.029" stroke="url(#paint2_linear_1_463)" stroke-width="1.8809" stroke-miterlimit="10"/>
<path d="M-31.6641 25.779C331.15 -45.4405 242.901 503.459 459.254 654.187C750.48 857.101 833.024 40.9294 976.309 237C1156.6 483.704 1130.51 543.276 1443.92 374.924C1761.23 203.557 1956.01 536.27 1956.01 536.27" stroke="url(#paint3_linear_1_463)" stroke-width="1.8214" stroke-miterlimit="10"/>
<path d="M-32.2773 59.9984C339.977 4.164 264.833 483.74 476.854 637.754C772.069 852.207 854.92 46.4912 999.342 241.117C1179.05 483.289 1141.09 571.843 1453.18 400.404C1770.47 224.937 1954.21 543.529 1954.21 543.529" stroke="url(#paint4_linear_1_463)" stroke-width="1.7619" stroke-miterlimit="10"/>
<path d="M-32.8906 94.2176C348.786 53.7684 286.674 464.202 494.453 621.303C793.585 847.512 876.816 52.071 1022.37 245.234C1201.47 482.891 1151.65 600.411 1462.43 425.883C1779.7 246.336 1952.39 550.77 1952.39 550.77" stroke="url(#paint5_linear_1_463)" stroke-width="1.7024" stroke-miterlimit="10"/>
<path d="M-33.5234 128.437C357.594 103.373 308.406 444.826 512.033 604.871C814.992 843.016 898.674 57.6508 1045.41 249.351C1223.87 482.512 1162.21 628.978 1471.69 451.363C1788.94 267.734 1950.58 558.029 1950.58 558.029" stroke="url(#paint6_linear_1_463)" stroke-width="1.6429" stroke-miterlimit="10"/>
<path d="M-34.1367 162.674C366.403 152.995 330.067 425.612 529.633 588.438C836.328 838.682 920.533 63.2486 1068.44 253.468C1246.25 482.133 1172.79 657.545 1480.93 476.842C1798.16 289.114 1948.76 565.289 1948.76 565.289" stroke="url(#paint7_linear_1_463)" stroke-width="1.5833" stroke-miterlimit="10"/>
<path d="M-34.75 196.894C375.23 202.6 351.638 406.507 547.232 572.006C857.519 834.547 942.357 68.8645 1091.47 257.585C1268.62 481.79 1183.73 686.744 1490.19 502.321C1807.8 311.181 1946.95 572.548 1946.95 572.548" stroke="url(#paint8_linear_1_463)" stroke-width="1.5238" stroke-miterlimit="10"/>
<path d="M-35.3633 231.113C384.039 252.204 373.118 387.529 564.832 555.555C878.585 830.556 964.18 74.4626 1114.5 261.685C1290.95 481.429 1194.32 715.312 1499.43 527.783C1817.06 332.579 1945.13 579.789 1945.13 579.789" stroke="url(#paint9_linear_1_463)" stroke-width="1.4643" stroke-miterlimit="10"/>
<path d="M-35.9766 265.332C392.866 301.809 394.508 368.658 582.432 539.105C899.524 826.728 985.986 80.0785 1137.56 265.784C1313.28 481.104 1204.92 743.861 1508.71 553.244C1826.34 353.959 1943.34 587.03 1943.34 587.03" stroke="url(#paint10_linear_1_463)" stroke-width="1.4048" stroke-miterlimit="10"/>
<path d="M-36.5898 299.57C401.675 351.413 415.808 349.878 600.031 522.672C920.3 823.098 1007.75 85.7487 1160.57 269.919C1335.55 480.815 1215.46 772.428 1517.95 578.742C1835.57 375.358 1941.52 594.307 1941.52 594.307" stroke="url(#paint11_linear_1_463)" stroke-width="1.3452" stroke-miterlimit="10"/>
<path d="M-37.2031 333.789C410.502 401.036 437.018 331.189 617.631 506.24C940.914 819.595 1029.54 91.4007 1183.62 274.036C1357.83 480.526 1226.04 800.978 1527.19 604.221C1844.79 396.738 1939.7 601.567 1939.7 601.567" stroke="url(#paint12_linear_1_463)" stroke-width="1.2857" stroke-miterlimit="10"/>
<path d="M-37.8164 368.008C419.329 450.64 458.156 312.553 635.231 489.807C961.348 816.254 1051.28 97.0888 1206.64 278.135C1380.06 480.237 1236.58 829.491 1536.45 629.7C1854.03 418.1 1937.91 608.826 1937.91 608.826" stroke="url(#paint13_linear_1_463)" stroke-width="1.2262" stroke-miterlimit="10"/>
<path d="M-38.4492 402.228C428.119 500.227 479.183 293.99 652.811 473.357C981.618 813.058 1072.99 102.777 1229.67 282.252C1402.3 480.002 1246.74 857.462 1545.69 655.18C1862.82 438.849 1936.09 616.067 1936.09 616.067" stroke="url(#paint14_linear_1_463)" stroke-width="1.1667" stroke-miterlimit="10"/>
<path d="M-39.0625 436.447C436.946 549.831 500.158 275.463 670.41 456.906C1001.69 809.97 1094.69 108.483 1252.7 286.351C1424.5 479.749 1257.3 886.011 1554.95 680.641C1872.06 460.229 1934.28 623.308 1934.28 623.308" stroke="url(#paint15_linear_1_463)" stroke-width="1.1071" stroke-miterlimit="10"/>
<path d="M-39.6758 470.684C445.755 599.454 521.061 257.008 688.01 440.492C1021.58 807.081 1116.38 114.226 1275.73 290.487C1446.69 479.569 1267.88 914.579 1564.2 706.139C1881.29 481.645 1932.46 630.585 1932.46 630.585" stroke="url(#paint16_linear_1_463)" stroke-width="1.0476" stroke-miterlimit="10"/>
<path d="M-40.293 504.904C454.578 649.058 541.87 238.571 705.606 424.041C1041.25 804.264 1138.04 119.986 1298.78 294.586C1468.87 479.37 1278.45 943.128 1573.47 731.6C1890.56 503.008 1930.67 637.826 1930.67 637.826" stroke="url(#paint17_linear_1_463)" stroke-width="0.9881" stroke-miterlimit="10"/>
<path d="M-40.9062 539.123C463.387 698.663 562.61 220.17 723.205 407.609C1060.75 801.609 1159.68 125.764 1321.81 298.721C1491.02 479.208 1289.01 971.713 1582.71 757.097C1899.79 524.424 1928.85 645.103 1928.85 645.103" stroke="url(#paint18_linear_1_463)" stroke-width="0.9286" stroke-miterlimit="10"/>
<path d="M-41.5195 573.342C472.214 748.267 583.297 201.787 740.805 391.158C1080.03 799.027 1181.31 131.561 1344.84 302.82C1513.15 479.063 1299.59 1000.26 1591.97 782.559C1909.03 545.804 1927.04 652.345 1927.04 652.345" stroke="url(#paint19_linear_1_463)" stroke-width="0.869" stroke-miterlimit="10"/>
<path d="M-42.1328 607.58C481.023 797.89 603.911 183.423 758.404 374.744C1099.09 796.607 1202.7 137.61 1367.88 306.955C1535.04 479.153 1310.15 1028.85 1601.22 808.056C1918.25 567.203 1925.22 659.622 1925.22 659.622" stroke="url(#paint20_linear_1_463)" stroke-width="0.8095" stroke-miterlimit="10"/>
<path d="M-42.7461 641.799C489.85 847.494 624.452 165.076 776.004 358.293C1117.95 794.26 1224.49 143.262 1390.91 311.054C1557.34 478.846 1320.71 1057.4 1610.46 833.517C1927.48 588.583 1923.4 666.863 1923.4 666.863" stroke="url(#paint21_linear_1_463)" stroke-width="0.75" stroke-miterlimit="10"/>
<defs>
<linearGradient id="paint0_linear_1_463" x1="965.824" y1="-89.1924" x2="965.824" y2="726.025" gradientUnits="userSpaceOnUse">
<stop stop-color="#6A55EA" stop-opacity="0"/>
<stop offset="1" stop-color="#6A55EA" stop-opacity="0.1"/>
</linearGradient>
<linearGradient id="paint1_linear_1_463" x1="964.602" y1="-52.9429" x2="964.602" y2="712.712" gradientUnits="userSpaceOnUse">
<stop stop-color="#6A55EA" stop-opacity="0"/>
<stop offset="1" stop-color="#6A55EA" stop-opacity="0.1"/>
</linearGradient>
<linearGradient id="paint2_linear_1_463" x1="963.393" y1="-16.7332" x2="963.393" y2="699.649" gradientUnits="userSpaceOnUse">
<stop stop-color="#6A55EA" stop-opacity="0"/>
<stop offset="1" stop-color="#6A55EA" stop-opacity="0.1"/>
</linearGradient>
<linearGradient id="paint3_linear_1_463" x1="962.175" y1="19.4365" x2="962.175" y2="686.869" gradientUnits="userSpaceOnUse">
<stop stop-color="#6A55EA" stop-opacity="0"/>
<stop offset="1" stop-color="#6A55EA" stop-opacity="0.1"/>
</linearGradient>
<linearGradient id="paint4_linear_1_463" x1="960.967" y1="55.501" x2="960.967" y2="674.379" gradientUnits="userSpaceOnUse">
<stop stop-color="#6A55EA" stop-opacity="0"/>
<stop offset="1" stop-color="#6A55EA" stop-opacity="0.1"/>
</linearGradient>
<linearGradient id="paint5_linear_1_463" x1="959.748" y1="91.4289" x2="959.748" y2="662.173" gradientUnits="userSpaceOnUse">
<stop stop-color="#6A55EA" stop-opacity="0"/>
<stop offset="1" stop-color="#6A55EA" stop-opacity="0.1"/>
</linearGradient>
<linearGradient id="paint6_linear_1_463" x1="958.529" y1="127.129" x2="958.529" y2="650.284" gradientUnits="userSpaceOnUse">
<stop stop-color="#6A55EA" stop-opacity="0"/>
<stop offset="1" stop-color="#6A55EA" stop-opacity="0.1"/>
</linearGradient>
<linearGradient id="paint7_linear_1_463" x1="957.311" y1="162.423" x2="957.311" y2="638.7" gradientUnits="userSpaceOnUse">
<stop stop-color="#6A55EA" stop-opacity="0"/>
<stop offset="1" stop-color="#6A55EA" stop-opacity="0.1"/>
</linearGradient>
<linearGradient id="paint8_linear_1_463" x1="956.102" y1="196.894" x2="956.102" y2="627.437" gradientUnits="userSpaceOnUse">
<stop stop-color="#6A55EA" stop-opacity="0"/>
<stop offset="1" stop-color="#6A55EA" stop-opacity="0.1"/>
</linearGradient>
<linearGradient id="paint9_linear_1_463" x1="954.884" y1="231.113" x2="954.884" y2="616.475" gradientUnits="userSpaceOnUse">
<stop stop-color="#6A55EA" stop-opacity="0"/>
<stop offset="1" stop-color="#6A55EA" stop-opacity="0.1"/>
</linearGradient>
<linearGradient id="paint10_linear_1_463" x1="953.684" y1="235.708" x2="953.684" y2="619.076" gradientUnits="userSpaceOnUse">
<stop stop-color="#6A55EA" stop-opacity="0"/>
<stop offset="1" stop-color="#6A55EA" stop-opacity="0.1"/>
</linearGradient>
<linearGradient id="paint11_linear_1_463" x1="952.466" y1="239.958" x2="952.466" y2="642.255" gradientUnits="userSpaceOnUse">
<stop stop-color="#6A55EA" stop-opacity="0"/>
<stop offset="1" stop-color="#6A55EA" stop-opacity="0.1"/>
</linearGradient>
<linearGradient id="paint12_linear_1_463" x1="951.248" y1="244.194" x2="951.248" y2="665.703" gradientUnits="userSpaceOnUse">
<stop stop-color="#6A55EA" stop-opacity="0"/>
<stop offset="1" stop-color="#6A55EA" stop-opacity="0.1"/>
</linearGradient>
<linearGradient id="paint13_linear_1_463" x1="950.048" y1="248.431" x2="950.048" y2="689.377" gradientUnits="userSpaceOnUse">
<stop stop-color="#6A55EA" stop-opacity="0"/>
<stop offset="1" stop-color="#6A55EA" stop-opacity="0.1"/>
</linearGradient>
<linearGradient id="paint14_linear_1_463" x1="948.82" y1="252.684" x2="948.82" y2="713.057" gradientUnits="userSpaceOnUse">
<stop stop-color="#6A55EA" stop-opacity="0"/>
<stop offset="1" stop-color="#6A55EA" stop-opacity="0.1"/>
</linearGradient>
<linearGradient id="paint15_linear_1_463" x1="947.611" y1="256.932" x2="947.611" y2="737.13" gradientUnits="userSpaceOnUse">
<stop stop-color="#6A55EA" stop-opacity="0"/>
<stop offset="1" stop-color="#6A55EA" stop-opacity="0.1"/>
</linearGradient>
<linearGradient id="paint16_linear_1_463" x1="946.393" y1="261.222" x2="946.393" y2="761.389" gradientUnits="userSpaceOnUse">
<stop stop-color="#6A55EA" stop-opacity="0"/>
<stop offset="1" stop-color="#6A55EA" stop-opacity="0.1"/>
</linearGradient>
<linearGradient id="paint17_linear_1_463" x1="945.189" y1="265.492" x2="945.189" y2="785.753" gradientUnits="userSpaceOnUse">
<stop stop-color="#6A55EA" stop-opacity="0"/>
<stop offset="1" stop-color="#6A55EA" stop-opacity="0.1"/>
</linearGradient>
<linearGradient id="paint18_linear_1_463" x1="943.971" y1="269.798" x2="943.971" y2="810.27" gradientUnits="userSpaceOnUse">
<stop stop-color="#6A55EA" stop-opacity="0"/>
<stop offset="1" stop-color="#6A55EA" stop-opacity="0.1"/>
</linearGradient>
<linearGradient id="paint19_linear_1_463" x1="942.762" y1="274.085" x2="942.762" y2="834.856" gradientUnits="userSpaceOnUse">
<stop stop-color="#6A55EA" stop-opacity="0"/>
<stop offset="1" stop-color="#6A55EA" stop-opacity="0.1"/>
</linearGradient>
<linearGradient id="paint20_linear_1_463" x1="941.544" y1="278.471" x2="941.544" y2="859.582" gradientUnits="userSpaceOnUse">
<stop stop-color="#6A55EA" stop-opacity="0"/>
<stop offset="1" stop-color="#6A55EA" stop-opacity="0.1"/>
</linearGradient>
<linearGradient id="paint21_linear_1_463" x1="940.327" y1="282.726" x2="940.327" y2="884.326" gradientUnits="userSpaceOnUse">
<stop stop-color="#6A55EA" stop-opacity="0"/>
<stop offset="1" stop-color="#6A55EA" stop-opacity="0.1"/>
</linearGradient>
</defs>
</svg>
